<svg width="48" height="48" viewBox="0 0 48 48" fill="none" xmlns="http://www.w3.org/2000/svg">
<path d="M24 0.0742188C10.8066 0.0742188 0.0742188 10.8066 0.0742188 24C0.0742188 37.1934 10.8066 47.9258 24 47.9258C37.1934 47.9258 47.9258 37.1934 47.9258 24C47.9258 10.8066 37.1934 0.0742188 24 0.0742188ZM18.8438 2.73047C16.9297 4.71289 15.3184 7.78906 14.2246 11.6465H5.94336C8.95117 7.26172 13.5215 4.01953 18.8438 2.73047ZM13.707 13.6777C13.375 15.1621 13.1113 16.7441 12.9258 18.4043C10.4844 18.707 8.52148 20.582 8.08203 22.9746H2.13477C2.29102 19.625 3.19922 16.4707 4.69336 13.6777H13.707ZM16.9883 24C16.9883 25.8555 15.4844 27.3594 13.6289 27.3594C11.7734 27.3594 10.2695 25.8555 10.2695 24C10.2695 22.1445 11.7734 20.6406 13.6289 20.6406C15.4746 20.6406 16.9883 22.1445 16.9883 24ZM2.13477 25.0156H8.08203C8.52148 27.418 10.4844 29.2832 12.9258 29.5957C13.1113 31.2559 13.375 32.8379 13.707 34.3223H4.70312C3.19922 31.5195 2.29102 28.3652 2.13477 25.0156ZM5.94336 36.3535H14.2246C15.3281 40.2109 16.9297 43.2969 18.8438 45.2695C13.5215 43.9805 8.95117 40.7383 5.94336 36.3535ZM22.9844 45.6016C20.3281 44.8789 17.8965 41.3828 16.3633 36.3535H22.9844V45.6016ZM22.9844 34.3223H15.7969C15.4355 32.8086 15.1426 31.1875 14.9473 29.4883C17.0957 28.9707 18.7656 27.2129 19.166 25.0254H22.9746V34.3223H22.9844ZM22.9941 22.9844H19.1855C18.7852 20.7969 17.1152 19.0391 14.9668 18.5215C15.1621 16.8223 15.4551 15.2012 15.8164 13.6875H22.9941V22.9844ZM22.9941 11.6465H16.373C17.916 6.61719 20.3379 3.12109 22.9941 2.39844V11.6465ZM45.875 22.9844H35.3965C35.3672 21.2754 35.2402 19.5762 35.0449 17.9355C36.8613 17.2422 38.2188 15.6406 38.5801 13.6875H43.3164C44.8105 16.4805 45.7188 19.6348 45.875 22.9844ZM33.0234 16.0215C31.168 16.0215 29.6641 14.5176 29.6641 12.6621C29.6641 10.8066 31.168 9.30273 33.0234 9.30273C34.8789 9.30273 36.3828 10.8066 36.3828 12.6621C36.3828 14.5176 34.8789 16.0215 33.0234 16.0215ZM42.0664 11.6465H38.5703C38.0918 9.01953 35.7871 7.02734 33.0234 7.02734C32.7012 7.02734 32.3887 7.05664 32.0859 7.10547C31.2266 5.30859 30.25 3.84375 29.1855 2.73047C34.498 4.01953 39.0586 7.26172 42.0664 11.6465ZM25.0254 2.39844C26.8906 2.90625 28.6973 4.81055 30.1621 7.79883C28.7754 8.61914 27.7695 10.0059 27.4766 11.6367H25.0254V2.39844ZM25.0254 13.6777H27.4668C27.916 16.3242 30.2402 18.3359 33.0234 18.3359H33.0332C33.2188 19.8496 33.3164 21.4023 33.3555 22.9746H25.0254V13.6777ZM36.3828 35.2402C36.3828 37.0957 34.8789 38.5996 33.0234 38.5996C31.168 38.5996 29.6641 37.0957 29.6641 35.2402C29.6641 33.3848 31.168 31.8809 33.0234 31.8809C34.8789 31.8809 36.3828 33.3945 36.3828 35.2402ZM25.0254 25.0156H33.3555C33.3262 26.5586 33.2188 28.082 33.043 29.5664C33.0332 29.5664 33.0234 29.5664 33.0234 29.5664C30.2012 29.5664 27.8574 31.627 27.4473 34.3223H25.0254V25.0156ZM25.0254 45.6016V36.3535H27.4961C27.8184 37.9648 28.8242 39.3223 30.2012 40.123C28.7363 43.1602 26.9102 45.084 25.0254 45.6016ZM29.1855 45.2695C30.2695 44.1465 31.2559 42.6426 32.125 40.8066C32.418 40.8555 32.7207 40.875 33.0234 40.875C35.7578 40.875 38.0332 38.9219 38.5508 36.3438H42.0664C39.0586 40.7383 34.498 43.9805 29.1855 45.2695ZM43.3066 34.3125H38.5801C38.248 32.3203 36.8711 30.6797 35.0352 29.9766C35.2305 28.3555 35.3477 26.6953 35.377 25.0156H45.8652C45.7188 28.3652 44.8105 31.5195 43.3066 34.3125Z" fill="#C7CAD1"/>
</svg>
