<svg width="32" height="32" viewBox="0 0 32 32" fill="none" xmlns="http://www.w3.org/2000/svg">
<circle cx="16" cy="16" r="16" fill="url(#paint0_linear_318_1045)"/>
<path d="M21.2642 9.59998H11.535C10.4365 9.59998 9.59961 10.4369 9.59961 11.5354V21.2646C9.59961 22.3631 10.4365 23.2 11.535 23.2H21.2642C22.3627 23.2 23.1996 22.3631 23.1996 21.2646V11.5354C23.1996 10.4369 22.3627 9.59998 21.2642 9.59998ZM16.3996 20.48C18.6488 20.48 20.4796 18.7015 20.4796 16.5569C20.4796 16.1907 20.4273 15.7723 20.3227 15.4584H21.4735V21.0031C21.4735 21.2646 21.2642 21.5261 20.9504 21.5261H11.8488C11.5873 21.5261 11.3258 21.3169 11.3258 21.0031V15.4061H12.5288C12.4242 15.7723 12.3719 16.1384 12.3719 16.5046C12.3196 18.7015 14.1504 20.48 16.3996 20.48ZM16.3996 18.9107C14.935 18.9107 13.7842 17.76 13.7842 16.3477C13.7842 14.9354 14.935 13.7846 16.3996 13.7846C17.8642 13.7846 19.015 14.9354 19.015 16.3477C19.015 17.8123 17.8642 18.9107 16.3996 18.9107ZM21.4212 13.3138C21.4212 13.6277 21.1596 13.8892 20.8458 13.8892H19.3811C19.0673 13.8892 18.8058 13.6277 18.8058 13.3138V11.9015C18.8058 11.5877 19.0673 11.3261 19.3811 11.3261H20.8458C21.1596 11.3261 21.4212 11.5877 21.4212 11.9015V13.3138Z" fill="white"/>
<defs>
<linearGradient id="paint0_linear_318_1045" x1="6.8" y1="28.4" x2="28" y2="6.4" gradientUnits="userSpaceOnUse">
<stop stop-color="#EEA054"/>
<stop offset="0.502762" stop-color="#D64763"/>
<stop offset="1" stop-color="#B62A99"/>
</linearGradient>
</defs>
</svg>
