<svg width="117" height="34" viewBox="0 0 117 34" fill="none" xmlns="http://www.w3.org/2000/svg">
<path d="M12.6596 21.3404C12.1821 21.0221 11.8448 18.1133 12.0479 14.2773C17.2352 13.8464 24.6617 14.0326 33.9975 16.704C33.9992 16.8025 34 16.9011 34 17C34 19.6319 33.4019 22.1242 32.3342 24.3482C26.1738 21.8049 19.6139 21.682 15.8128 21.6108C14.1283 21.5792 12.9856 21.5578 12.6596 21.3404Z" fill="#CD0000"/>
<path d="M29.9886 27.9686C26.8702 31.6575 22.2086 34 17 34C7.61116 34 0 26.3888 0 17C0 10.1911 4.00297 4.31712 9.78394 1.60307C8.73873 5.27259 8.12405 8.60734 7.81649 11.552C5.41437 12.0845 3.78035 12.6887 2.8936 13.0213C1.44679 13.5638 2 16 3.97871 15.5532C4.25866 15.5132 4.65799 15.4295 5.17329 15.3216C5.8057 15.1891 6.61297 15.02 7.58835 14.8501C7.36004 21.9485 9.01678 26.0426 10.1276 26.0426C10.3253 26.0426 10.6611 26.0296 11.1124 26.0122C14.301 25.8891 23.2536 25.5437 29.9886 27.9686Z" fill="#CD0000"/>
<path d="M15.4095 0.0734224C13.7584 3.2993 12.8246 7.21711 12.3627 10.8084C17.4244 10.2515 24.3946 10.3227 33.353 12.3387C31.3267 5.21609 24.7725 0 17 0C16.4637 0 15.9331 0.0248366 15.4095 0.0734224Z" fill="#CD0000"/>
<path d="M47.472 11.868H42.096V8.7H56.736V11.868H51.36V25.5H47.472V11.868ZM66.7296 25.788C64.9856 25.788 63.4096 25.412 62.0016 24.66C60.6096 23.908 59.5136 22.876 58.7136 21.564C57.9296 20.236 57.5376 18.748 57.5376 17.1C57.5376 15.452 57.9296 13.972 58.7136 12.66C59.5136 11.332 60.6096 10.292 62.0016 9.54C63.4096 8.788 64.9856 8.412 66.7296 8.412C68.4736 8.412 70.0416 8.788 71.4336 9.54C72.8256 10.292 73.9216 11.332 74.7216 12.66C75.5216 13.972 75.9216 15.452 75.9216 17.1C75.9216 18.748 75.5216 20.236 74.7216 21.564C73.9216 22.876 72.8256 23.908 71.4336 24.66C70.0416 25.412 68.4736 25.788 66.7296 25.788ZM66.7296 22.476C67.7216 22.476 68.6176 22.252 69.4176 21.804C70.2176 21.34 70.8416 20.7 71.2896 19.884C71.7536 19.068 71.9856 18.14 71.9856 17.1C71.9856 16.06 71.7536 15.132 71.2896 14.316C70.8416 13.5 70.2176 12.868 69.4176 12.42C68.6176 11.956 67.7216 11.724 66.7296 11.724C65.7376 11.724 64.8416 11.956 64.0416 12.42C63.2416 12.868 62.6096 13.5 62.1456 14.316C61.6976 15.132 61.4736 16.06 61.4736 17.1C61.4736 18.14 61.6976 19.068 62.1456 19.884C62.6096 20.7 63.2416 21.34 64.0416 21.804C64.8416 22.252 65.7376 22.476 66.7296 22.476ZM84.3636 25.788C83.0356 25.788 81.7476 25.612 80.4996 25.26C79.2676 24.892 78.2756 24.42 77.5236 23.844L78.8436 20.916C79.5636 21.444 80.4196 21.868 81.4116 22.188C82.4036 22.508 83.3956 22.668 84.3876 22.668C85.4916 22.668 86.3076 22.508 86.8356 22.188C87.3636 21.852 87.6276 21.412 87.6276 20.868C87.6276 20.468 87.4676 20.14 87.1476 19.884C86.8436 19.612 86.4436 19.396 85.9476 19.236C85.4676 19.076 84.8116 18.9 83.9796 18.708C82.6996 18.404 81.6516 18.1 80.8356 17.796C80.0196 17.492 79.3156 17.004 78.7236 16.332C78.1476 15.66 77.8596 14.764 77.8596 13.644C77.8596 12.668 78.1236 11.788 78.6516 11.004C79.1796 10.204 79.9716 9.572 81.0276 9.108C82.0996 8.644 83.4036 8.412 84.9396 8.412C86.0116 8.412 87.0596 8.54 88.0836 8.796C89.1076 9.052 90.0036 9.42 90.7716 9.9L89.5716 12.852C88.0196 11.972 86.4676 11.532 84.9156 11.532C83.8276 11.532 83.0196 11.708 82.4916 12.06C81.9796 12.412 81.7236 12.876 81.7236 13.452C81.7236 14.028 82.0196 14.46 82.6116 14.748C83.2196 15.02 84.1396 15.292 85.3716 15.564C86.6516 15.868 87.6996 16.172 88.5156 16.476C89.3316 16.78 90.0276 17.26 90.6036 17.916C91.1956 18.572 91.4916 19.46 91.4916 20.58C91.4916 21.54 91.2196 22.42 90.6756 23.22C90.1476 24.004 89.3476 24.628 88.2756 25.092C87.2036 25.556 85.8996 25.788 84.3636 25.788ZM107.156 22.38V25.5H94.1483V8.7H106.844V11.82H98.0123V15.468H105.812V18.492H98.0123V22.38H107.156ZM110.25 8.7H114.138V25.5H110.25V8.7Z" fill="black"/>
</svg>
