<?xml version="1.0" standalone="no"?>
<!DOCTYPE svg PUBLIC "-//W3C//DTD SVG 20010904//EN"
 "http://www.w3.org/TR/2001/REC-SVG-20010904/DTD/svg10.dtd">
<svg version="1.0" xmlns="http://www.w3.org/2000/svg"
 width="398.000000pt" height="214.000000pt" viewBox="0 0 398.000000 214.000000"
 preserveAspectRatio="xMidYMid meet">

<g transform="translate(0.000000,214.000000) scale(0.100000,-0.100000)"
fill="" stroke="none">
<path d="M0 1070 l0 -1070 1990 0 1990 0 0 1070 0 1070 -1990 0 -1990 0 0
-1070z m1170 358 c46 -32 71 -68 77 -115 13 -94 -84 -185 -178 -166 -49 10
-36 32 19 31 57 -2 87 13 112 55 24 38 25 78 5 121 -32 67 -127 88 -183 41
-44 -37 -58 -77 -42 -127 10 -36 13 -39 22 -24 5 10 13 38 16 63 9 57 35 78
72 60 28 -14 38 -51 20 -73 -20 -23 -32 -16 -25 15 7 32 -9 51 -28 32 -9 -9
-8 -11 6 -6 24 10 22 -17 -2 -39 -33 -30 -51 -148 -31 -201 9 -23 13 -25 25
-15 8 7 15 21 15 31 0 11 7 19 15 19 23 0 18 -35 -9 -66 -23 -27 -24 -27 -49
-11 -20 13 -27 28 -33 73 -4 32 -16 73 -27 92 -28 47 -28 122 -1 160 34 45 82
72 129 72 27 0 54 -8 75 -22z m1810 -277 c0 -151 1 -160 20 -166 11 -3 20 -15
20 -26 0 -23 -46 -27 -76 -5 -17 13 -19 30 -22 185 l-3 171 30 0 31 0 0 -159z
m-1584 -115 c-1 -41 -1 -41 -40 -41 -28 0 -42 5 -50 19 -16 28 -40 52 -60 59
-10 4 -20 16 -23 26 -3 11 -13 21 -24 24 -32 9 -22 29 14 25 24 -2 33 -8 35
-25 2 -15 10 -23 23 -23 11 0 24 -11 31 -25 6 -13 14 -22 19 -20 4 3 5 -4 2
-15 -5 -17 0 -20 26 -20 49 0 36 35 -43 111 -46 43 -66 70 -61 78 5 9 29 -9
80 -59 68 -68 73 -75 71 -114z m601 149 c27 -19 45 -73 42 -122 -4 -68 0 -93
17 -93 9 0 14 -7 12 -17 -4 -23 -66 -31 -74 -10 -5 13 -9 13 -32 1 -36 -19
-107 -18 -136 2 -30 19 -41 59 -26 95 14 34 27 39 113 46 53 5 67 9 67 22 -1
44 -27 51 -140 39 -33 -4 -40 29 -8 41 38 16 141 13 165 -4z m559 9 c18 -5 20
-9 11 -28 -10 -21 -14 -22 -50 -13 -43 11 -87 -3 -87 -27 0 -20 9 -24 71 -36
67 -13 89 -33 89 -80 0 -55 -26 -74 -109 -78 -53 -3 -71 0 -84 12 -28 28 -12
45 32 34 55 -14 105 1 109 34 3 21 -2 26 -30 33 -18 4 -41 7 -50 6 -9 -1 -31
5 -47 14 -27 13 -31 21 -31 55 0 54 34 80 104 80 28 0 61 -3 72 -6z m275 -15
c28 -20 29 -22 29 -110 0 -70 3 -91 15 -95 8 -4 15 -15 15 -25 0 -14 -7 -19
-30 -19 -18 0 -33 6 -36 15 -5 13 -9 13 -34 0 -37 -19 -110 -19 -137 0 -27 19
-37 61 -23 96 14 34 27 39 113 46 64 6 68 8 63 27 -3 12 -6 24 -6 28 0 14 -60
19 -101 8 -33 -9 -44 -9 -50 2 -20 30 12 45 104 47 35 1 57 -5 78 -20z m436
-13 c17 -20 23 -39 23 -72 l0 -44 -100 0 c-64 0 -100 -4 -100 -11 0 -46 70
-78 135 -60 41 11 55 8 55 -14 0 -25 -40 -37 -111 -33 -62 3 -73 7 -101 35
-60 60 -47 169 25 214 49 31 141 23 174 -15z m-1093 -78 l40 -97 42 97 c39 90
45 97 73 100 l30 3 -57 -125 c-56 -125 -57 -126 -90 -126 -36 0 -27 -15 -108
173 l-34 78 32 -3 c30 -3 34 -8 72 -100z m-1373 -48 c17 -10 19 -23 19 -161 0
-84 -5 -159 -10 -170 -9 -15 -22 -19 -66 -19 -70 0 -70 24 0 28 l47 3 -3 147
-3 147 -47 3 c-45 3 -57 10 -41 25 10 11 82 8 104 -3z m228 -83 c45 -31 61
-37 106 -37 63 0 85 -7 85 -27 0 -10 -6 -12 -21 -8 -11 4 -44 7 -72 7 -43 -1
-59 5 -102 36 -43 31 -59 37 -117 40 -38 2 -68 7 -68 11 0 18 19 23 75 19 49
-3 70 -10 114 -41z m409 -29 c21 -21 13 -55 -17 -80 -66 -56 -192 -121 -245
-126 -45 -4 -49 -3 -38 10 7 9 30 18 51 21 50 6 230 115 231 139 0 32 -19 29
-109 -17 -80 -40 -98 -45 -153 -44 -87 1 -159 12 -158 24 0 12 147 7 170 -5
10 -5 48 9 110 41 97 49 137 58 158 37z m-513 -122 c39 -17 50 -43 13 -31 -13
4 -40 9 -60 12 -24 3 -38 10 -38 19 0 18 41 18 85 0z m-175 -36 c0 -21 -24
-28 -35 -10 -8 14 3 30 21 30 8 0 14 -9 14 -20z m254 4 c15 -6 23 -34 10 -34
-13 0 -44 21 -44 30 0 11 11 13 34 4z m100 -30 c25 -9 19 -24 -9 -24 -24 0
-32 10 -18 23 8 8 8 8 27 1z"/>
<path d="M1896 1051 c-53 -11 -62 -64 -13 -76 13 -4 41 0 61 9 30 12 36 20 36
45 0 26 -3 30 -27 28 -16 0 -41 -3 -57 -6z"/>
<path d="M2750 1053 c-67 -10 -71 -13 -68 -41 4 -38 43 -50 91 -27 30 14 37
23 37 46 0 30 -3 31 -60 22z"/>
<path d="M3140 1153 c-24 -9 -50 -35 -50 -50 0 -10 19 -13 75 -13 78 0 89 7
63 43 -14 18 -64 30 -88 20z"/>
</g>
</svg>
