<svg width="21" height="21" viewBox="0 0 21 21" fill="none" xmlns="http://www.w3.org/2000/svg">
<path d="M17.7561 3.13343C15.7993 1.18343 13.1902 0.100098 10.4362 0.100098C4.7108 0.100098 0.0724728 4.72232 0.0724728 10.4279C0.0724728 12.2334 0.579791 14.039 1.44948 15.5557L0 20.9001L5.50802 19.4557C7.02997 20.2501 8.69686 20.6834 10.4362 20.6834C16.1617 20.6834 20.8 16.0612 20.8 10.3557C20.7275 7.68343 19.7129 5.08343 17.7561 3.13343ZM15.4369 14.1112C15.2195 14.689 14.2049 15.2668 13.6976 15.339C13.2627 15.4112 12.6829 15.4112 12.1031 15.2668C11.7408 15.1223 11.2334 14.9779 10.6537 14.689C8.0446 13.6057 6.3777 11.0057 6.23275 10.789C6.08781 10.6445 5.14565 9.41676 5.14565 8.11676C5.14565 6.81676 5.79791 6.23899 6.01533 5.9501C6.23275 5.66121 6.52265 5.66121 6.74007 5.66121C6.88502 5.66121 7.10244 5.66121 7.24738 5.66121C7.39233 5.66121 7.60975 5.58899 7.82718 6.09454C8.0446 6.6001 8.55191 7.9001 8.62439 7.97232C8.69686 8.11676 8.69686 8.26121 8.62439 8.40565C8.55191 8.5501 8.47944 8.69454 8.33449 8.83899C8.18954 8.98343 8.0446 9.2001 7.97212 9.27232C7.82717 9.41676 7.68223 9.56121 7.82718 9.77787C7.97212 10.0668 8.47944 10.8612 9.27665 11.5834C10.2913 12.4501 11.0885 12.739 11.3784 12.8834C11.6683 13.0279 11.8132 12.9557 11.9582 12.8112C12.1031 12.6668 12.6105 12.089 12.7554 11.8001C12.9003 11.5112 13.1178 11.5834 13.3352 11.6557C13.5526 11.7279 14.8571 12.3779 15.0746 12.5223C15.3645 12.6668 15.5094 12.739 15.5819 12.8112C15.6544 13.0279 15.6544 13.5334 15.4369 14.1112Z" fill="#48D107"/>
</svg>
