<svg width="26" height="19" viewBox="0 0 26 19" fill="none" xmlns="http://www.w3.org/2000/svg">
<path d="M25.2412 7.0012C25.2412 6.44848 25.1491 5.80364 25.1491 5.06667C25.057 4.3297 24.9648 3.59272 24.8727 2.94788C24.6885 2.21091 24.4121 1.65818 23.8594 1.19758C23.3988 0.736972 22.7539 0.4606 22.1091 0.368479C19.9903 0.0921156 16.8582 0 12.6206 0C8.38304 0 5.15878 0.0921156 3.13212 0.368479C2.48727 0.4606 1.84242 0.736972 1.38182 1.19758C0.921212 1.65818 0.552722 2.21091 0.368479 2.94788C0.184237 3.59272 0.0921268 4.23757 0.0921268 5.06667C5.62519e-06 5.80364 0 6.44848 0 7.0012C0 7.55393 0 8.19878 0 9.11999C0 10.0412 0 10.7782 0 11.2388C0 11.7915 0.0921268 12.4364 0.0921268 13.1733C0.184248 13.9103 0.276358 14.6473 0.368479 15.2921C0.552722 16.0291 0.829091 16.5818 1.38182 17.0424C1.84242 17.503 2.48727 17.7794 3.13212 17.8715C5.2509 18.1479 8.38304 18.24 12.6206 18.24C16.8582 18.24 20.0824 18.1479 22.1091 17.8715C22.7539 17.7794 23.3988 17.503 23.8594 17.0424C24.32 16.5818 24.6885 16.0291 24.8727 15.2921C25.057 14.6473 25.1491 14.0024 25.1491 13.1733C25.2412 12.4364 25.2412 11.7915 25.2412 11.2388C25.2412 10.6861 25.2412 10.0412 25.2412 9.11999C25.2412 8.19878 25.2412 7.46181 25.2412 7.0012ZM17.503 9.85697L10.2255 14.3709C10.1333 14.463 9.9491 14.5552 9.76485 14.5552C9.58061 14.5552 9.48849 14.5551 9.30425 14.463C9.02788 14.2788 8.84364 14.0024 8.84364 13.6339V4.51393C8.84364 4.14545 9.02788 3.86909 9.30425 3.68485C9.58061 3.50061 9.9491 3.50061 10.2255 3.68485L17.503 8.19878C17.7794 8.38302 17.9636 8.65939 17.9636 8.93575C17.9636 9.21212 17.7794 9.67272 17.503 9.85697Z" fill="#CD0000"/>
</svg>
