<svg width="32" height="32" viewBox="0 0 32 32" fill="none" xmlns="http://www.w3.org/2000/svg">
<circle cx="16" cy="16" r="16" fill="#F40000"/>
<path d="M22.9713 15.1305C22.9713 14.8202 22.9196 14.4582 22.9196 14.0445C22.8679 13.6307 22.8161 13.217 22.7644 12.855C22.661 12.4412 22.5058 12.1309 22.1955 11.8723C21.9369 11.6138 21.5749 11.4586 21.2129 11.4069C20.0234 11.2517 18.265 11.2 15.886 11.2C13.5071 11.2 11.6969 11.2517 10.5592 11.4069C10.1971 11.4586 9.83512 11.6138 9.57654 11.8723C9.31795 12.1309 9.11108 12.4412 9.00765 12.855C8.90421 13.217 8.8525 13.579 8.8525 14.0445C8.80078 14.4582 8.80078 14.8202 8.80078 15.1305C8.80078 15.4408 8.80078 15.8028 8.80078 16.32C8.80078 16.8372 8.80078 17.2509 8.80078 17.5095C8.80078 17.8198 8.8525 18.1818 8.8525 18.5956C8.90422 19.0093 8.95593 19.423 9.00765 19.7851C9.11108 20.1988 9.26624 20.5091 9.57654 20.7677C9.83512 21.0263 10.1971 21.1814 10.5592 21.2331C11.7487 21.3883 13.5071 21.44 15.886 21.44C18.265 21.44 20.0751 21.3883 21.2129 21.2331C21.5749 21.1814 21.9369 21.0263 22.1955 20.7677C22.4541 20.5091 22.661 20.1988 22.7644 19.7851C22.8679 19.423 22.9196 19.061 22.9196 18.5956C22.9713 18.1818 22.9713 17.8198 22.9713 17.5095C22.9713 17.1992 22.9713 16.8372 22.9713 16.32C22.9713 15.8028 22.9713 15.3891 22.9713 15.1305ZM18.627 16.7337L14.5414 19.2679C14.4897 19.3196 14.3862 19.3713 14.2828 19.3713C14.1794 19.3713 14.1277 19.3713 14.0242 19.3196C13.8691 19.2162 13.7656 19.061 13.7656 18.8542V13.7342C13.7656 13.5273 13.8691 13.3721 14.0242 13.2687C14.1794 13.1653 14.3862 13.1653 14.5414 13.2687L18.627 15.8028C18.7822 15.9063 18.8856 16.0614 18.8856 16.2166C18.8856 16.3717 18.7822 16.6303 18.627 16.7337Z" fill="white"/>
</svg>
